<?xml version="1.0" encoding="UTF-8"?>
<svg id="Layer_2" xmlns="http://www.w3.org/2000/svg" xmlns:xlink="http://www.w3.org/1999/xlink" viewBox="0 0 593.25 791">
  <defs>
    <style>
      .cls-1 {
        opacity: .5;
      }

      .cls-1, .cls-2 {
        fill: #fff;
      }

      .cls-3 {
        fill: url(#Unbenannter_Verlauf_13-4);
      }

      .cls-4 {
        fill: url(#Unbenannter_Verlauf_13-3);
      }

      .cls-5 {
        fill: url(#Unbenannter_Verlauf_13-6);
      }

      .cls-6 {
        fill: url(#Unbenannter_Verlauf_13-5);
      }

      .cls-7 {
        fill: url(#Unbenannter_Verlauf_13-2);
      }

      .cls-8 {
        fill: url(#Unbenannter_Verlauf_13);
      }

      .cls-9 {
        fill: #102b69;
      }

      .cls-10 {
        fill: #102b69;
      }
    </style>
    <linearGradient id="Unbenannter_Verlauf_13" data-name="Unbenannter Verlauf 13" x1="-32.67" y1="908.47" x2="494.66" y2="552.52" gradientTransform="translate(5 1229) scale(1 -1)" gradientUnits="userSpaceOnUse">
      <stop offset="0" stop-color="#fff" stop-opacity="0"/>
      <stop offset=".51" stop-color="#fff" stop-opacity=".3"/>
      <stop offset="1" stop-color="#fff" stop-opacity="0"/>
    </linearGradient>
    <linearGradient id="Unbenannter_Verlauf_13-2" data-name="Unbenannter Verlauf 13" x1="72.68" y1="1064.55" x2="600.02" y2="708.6" xlink:href="#Unbenannter_Verlauf_13"/>
    <linearGradient id="Unbenannter_Verlauf_13-3" data-name="Unbenannter Verlauf 13" x1="9.85" y1="971.47" x2="537.19" y2="615.52" xlink:href="#Unbenannter_Verlauf_13"/>
    <linearGradient id="Unbenannter_Verlauf_13-4" data-name="Unbenannter Verlauf 13" x1="19" y1="985.02" x2="546.33" y2="629.07" xlink:href="#Unbenannter_Verlauf_13"/>
    <linearGradient id="Unbenannter_Verlauf_13-5" data-name="Unbenannter Verlauf 13" x1="41.47" y1="1018.31" x2="568.81" y2="662.36" xlink:href="#Unbenannter_Verlauf_13"/>
    <linearGradient id="Unbenannter_Verlauf_13-6" data-name="Unbenannter Verlauf 13" x1="18.03" y1="983.59" x2="545.37" y2="627.64" xlink:href="#Unbenannter_Verlauf_13"/>
  </defs>
  <g id="ohne_Rahmen">
    <g>
      <path class="cls-2" d="M143.05,150.51c-3.91,0-6.95,1.04-9.13,3.12-2.11,2.02-3.17,5.05-3.17,9.09v.64c0,3.73,1.03,6.58,3.07,8.54,2.11,1.9,5.15,2.85,9.13,2.85s7.17-.95,9.22-2.85c2.05-1.9,3.07-4.74,3.07-8.54v-.64c0-4.1-1.02-7.16-3.07-9.18-1.99-2.02-5.03-3.03-9.13-3.03Z"/>
      <path class="cls-2" d="M390.82,167.59c-2.98.37-5.22.73-6.71,1.1-1.49.31-2.67.7-3.54,1.19-.74.43-1.33.98-1.77,1.65-.37.61-.56,1.32-.56,2.11,0,1.35.56,2.39,1.68,3.12,1.12.67,2.79,1.01,5.03,1.01,1.43,0,2.79-.12,4.1-.37,1.3-.31,2.51-.73,3.63-1.29,2.36-1.1,4.22-2.51,5.59-4.22,1.37-1.78,2.05-3.64,2.05-5.6v-1.56c-.81.67-2.02,1.26-3.63,1.74-1.55.43-3.51.8-5.87,1.1Z"/>
      <path class="cls-2" d="M197.52,82.27c4.06,0,7.1-.91,9.13-2.73,2.03-1.82,3.04-4.56,3.04-8.2v-.44c0-4-1.05-6.97-3.14-8.91-2.09-2-5.07-3-8.95-3s-6.7,1.03-8.86,3.09c-2.15,2-3.23,4.91-3.23,8.73v.44c0,3.65.98,6.41,2.95,8.29,2.03,1.82,5.04,2.73,9.04,2.73Z"/>
      <path class="cls-2" d="M126.5,82.27c4.06,0,7.1-.91,9.13-2.73,2.03-1.82,3.04-4.56,3.04-8.2v-.62c0-3.94-1.01-6.88-3.04-8.82-1.97-1.94-4.98-2.91-9.04-2.91s-6.89,1-9.04,3c-2.09,1.94-3.14,4.85-3.14,8.73v.62c0,3.59,1.02,6.32,3.04,8.2,2.09,1.82,5.11,2.73,9.04,2.73Z"/>
      <path class="cls-2" d="M310.77,153.72c-2.17,2.08-3.26,5.11-3.26,9.09v.46c0,3.8.99,6.67,2.98,8.63,2.05,1.9,5.09,2.85,9.13,2.85s7.17-.95,9.22-2.85c2.05-1.9,3.07-4.74,3.07-8.54v-.46c0-4.16-1.06-7.25-3.17-9.28-2.11-2.08-5.12-3.12-9.03-3.12s-6.77,1.07-8.94,3.21Z"/>
      <path class="cls-2" d="M593.25,0H0v791h593.25V0ZM491.09,136h21.51l13.23,29.75.28,1.01.28-.92,13.13-29.85h20.77l-26.36,55.1c-2.05,4.29-3.94,7.74-5.68,10.38-1.74,2.63-3.57,4.62-5.5,5.97-1.92,1.35-4.22,2.26-6.89,2.75-2.67.49-5.99.73-9.97.73h-10.25v-16.16h8.1c1.12,0,2.11-.06,2.98-.18.93-.06,1.74-.21,2.42-.46,1.3-.37,2.39-1.04,3.26-2.02.93-.98,1.8-2.33,2.61-4.04l.65-1.47-24.59-50.6ZM250.48,32.96h309.81v72.51H250.48V32.96ZM467.58,154.36c-1.37-2.02-3.88-3.03-7.54-3.03s-6.49,1.1-8.1,3.31c-1.61,2.14-2.42,5.39-2.42,9.73v24.89h-20.4v-53.26h17.32l1.86,10.74c1.61-3.61,4.04-6.52,7.26-8.72,3.29-2.27,7.48-3.4,12.57-3.4,7.08,0,12.48,2.02,16.21,6.06s5.59,9.61,5.59,16.71v31.87h-20.3v-26.17c0-3.8-.68-6.7-2.05-8.72ZM398.27,149.86c-1.24-.92-3.66-1.38-7.26-1.38-4.16,0-7.14.61-8.94,1.84-1.74,1.16-2.67,2.85-2.79,5.05h-20.68c.68-6.73,3.69-11.85,9.03-15.34,5.4-3.55,12.98-5.33,22.73-5.33,10.31,0,17.79,1.78,22.45,5.33,4.72,3.55,7.08,9.12,7.08,16.71v32.51h-16.95l-2.05-10.19c-1.86,3.43-4.75,6.24-8.66,8.45-3.91,2.2-9,3.31-15.27,3.31-6.71,0-11.7-1.26-15-3.77-3.29-2.57-4.94-6.18-4.94-10.84v-.09c0-3.12.65-5.79,1.96-7.99,1.37-2.26,3.35-4.07,5.96-5.42.81-.43,1.61-.8,2.42-1.1.87-.37,1.77-.7,2.7-1.01,1.8-.55,3.97-1.01,6.52-1.38,2.55-.37,5.77-.73,9.69-1.1,1.86-.18,3.48-.37,4.84-.55,1.43-.18,2.67-.37,3.73-.55,1.99-.37,3.38-.83,4.19-1.38.81-.55,1.21-1.32,1.21-2.3,0-1.41-.65-2.57-1.96-3.49ZM352.12,162.81v.64c0,2.94-.31,5.66-.93,8.17-.56,2.45-1.4,4.68-2.51,6.7-2.3,3.98-5.4,6.98-9.31,9-3.85,2.02-8.1,3.03-12.76,3.03-4.9,0-8.88-.83-11.92-2.48-2.98-1.65-5.28-3.92-6.89-6.8v26.54h-19.75v-71.63h16.95l1.58,9.55c1.8-3.37,4.38-6,7.73-7.9,3.42-1.9,7.58-2.85,12.48-2.85,7.64,0,13.75,2.39,18.35,7.16,4.66,4.71,6.99,11.66,6.99,20.85ZM239.42,146.37c1.55-3.55,3.94-6.37,7.17-8.45,3.23-2.14,7.2-3.21,11.92-3.21,7.02,0,12.2,2.05,15.55,6.15,3.42,4.1,5.12,9.73,5.12,16.9v31.5h-20.12v-25.53c0-3.73-.59-6.73-1.77-9-1.12-2.27-3.51-3.4-7.17-3.4-3.35,0-5.68,1.19-6.99,3.58-1.24,2.39-1.86,5.51-1.86,9.37v24.98h-20.02v-25.9c0-1.16-.06-2.27-.19-3.31-.06-1.04-.22-2.02-.47-2.94-.43-1.78-1.27-3.18-2.51-4.22-1.24-1.04-3.07-1.56-5.5-1.56-3.48,0-5.9,1.22-7.26,3.67-1.37,2.45-2.05,5.72-2.05,9.83v24.43h-20.21v-53.26h17.14l1.77,10.1c1.55-3.43,3.88-6.18,6.99-8.27,3.17-2.14,7.11-3.21,11.83-3.21,4.97,0,8.97,1.04,12.01,3.12,3.04,2.02,5.25,4.9,6.61,8.63ZM166.25,45.04h16.79l1.57,9.17c1.78-3.23,4.34-5.76,7.66-7.59,3.38-1.82,7.5-2.73,12.36-2.73,7.57,0,13.62,2.29,18.18,6.88,4.61,4.53,6.92,11.2,6.92,20.03v.62c0,2.82-.31,5.44-.92,7.85-.55,2.35-1.38,4.5-2.49,6.44-2.28,3.82-5.35,6.7-9.23,8.65-3.81,1.94-8.03,2.91-12.64,2.91-4.86,0-8.8-.79-11.81-2.38-2.95-1.59-5.23-3.76-6.83-6.53v25.5h-19.56V45.04ZM171.64,147.66c2.61,4.16,3.91,9.18,3.91,15.06v.73c0,8.57-2.83,15.28-8.48,20.11-5.59,4.84-13.66,7.25-24.22,7.25-11.24,0-19.47-2.39-24.68-7.16-5.22-4.78-7.82-11.51-7.82-20.2v-.73c0-2.94.34-5.66,1.02-8.17.68-2.51,1.68-4.81,2.98-6.89,2.73-4.22,6.55-7.44,11.46-9.64,4.9-2.27,10.65-3.4,17.23-3.4,3.35,0,6.46.28,9.31.83,2.92.55,5.59,1.41,8.01,2.57,4.9,2.2,8.66,5.42,11.27,9.64ZM109.52,46.99c4.86-2.18,10.55-3.26,17.07-3.26,3.32,0,6.4.26,9.23.79,2.89.53,5.54,1.35,7.94,2.47,4.86,2.12,8.58,5.21,11.16,9.26,2.58,4,3.87,8.82,3.87,14.47v.71c0,8.23-2.8,14.67-8.4,19.32-5.54,4.65-13.53,6.97-23.99,6.97-11.13,0-19.28-2.29-24.45-6.88-5.17-4.59-7.75-11.06-7.75-19.41v-.71c0-2.82.34-5.44,1.02-7.85.68-2.41,1.66-4.62,2.95-6.62,2.71-4.06,6.49-7.15,11.35-9.26ZM36.89,32.96h59.97v17.03h-20.11v46.23h-20.3v-46.23h-19.56v-17.03ZM32.96,155.01c0-3.55.37-6.83,1.12-9.83.75-3,1.89-5.72,3.45-8.17,2.98-4.96,7.2-8.69,12.67-11.2,5.46-2.57,11.8-3.86,19-3.86,3.35,0,6.52.28,9.5.83,2.98.49,5.74,1.22,8.29,2.2,5.15,2.08,9.25,5.2,12.29,9.37,3.1,4.16,4.94,9.43,5.5,15.8v.83h-21.89v-.46c-.37-3.43-1.68-6.09-3.91-7.99-2.24-1.96-5.5-2.94-9.78-2.94-4.9,0-8.66,1.32-11.27,3.95-2.61,2.57-3.91,6.52-3.91,11.85v2.39c0,5.14,1.27,8.97,3.82,11.48,2.55,2.51,6.24,3.77,11.08,3.77,4.59,0,7.98-1.01,10.15-3.03,2.24-2.08,3.54-4.96,3.91-8.63v-.46h21.98v.64c-.74,9.8-4.25,17.14-10.52,22.04-6.27,4.9-14.96,7.35-26.08,7.35s-19.87-2.6-26.08-7.81c-6.21-5.2-9.31-13.41-9.31-24.61v-3.49ZM32.96,459.05v-228.34h527.33v355.95H32.96v-127.61ZM34.61,756.35v-148.31h524.04v148.31H34.61Z"/>
      <path class="cls-9" d="M558.64,608.04H34.61v148.31h524.04v-148.31ZM415.36,704.68v-30.14c0-1.03.84-1.87,1.87-1.87h11.36c1.03,0,1.87.84,1.87,1.87v28.38c.1,3.93,3.32,7.08,7.27,7.08h4.26c4.02,0,7.27-3.26,7.27-7.27v-16.43h0v-11.76c0-1.03.84-1.87,1.87-1.87h11.35c1.03,0,1.87.84,1.87,1.87v30.55c0,8.81-6.34,16.26-15.09,18.79-2.07.6-4.27.92-6.55.92h-5.72c-2.28,0-4.48-.32-6.54-.92-3.35-.96-6.34-2.65-8.76-4.85-3.85-3.51-6.26-8.34-6.33-13.68,0-.08,0-.17,0-.26,0-.14,0-.27,0-.41ZM177.9,692.5v17.84c0,1.03-.84,1.87-1.87,1.87h-11.35c-.71,0-1.33-.4-1.65-.99-.14-.26-.22-.56-.22-.88v-15.48c0-4.01-3.26-7.27-7.28-7.27h-4.26c-4.02,0-7.27,3.26-7.27,7.27h0v15.48c0,1.03-.84,1.87-1.87,1.87h-11.35c-1.03,0-1.87-.84-1.87-1.87v-68.88c0-1.03.84-1.87,1.87-1.87h11.35c1.03,0,1.87.84,1.87,1.87v32.25c2.07-.6,4.27-.92,6.55-.92h4.99c4.02,0,7.27-3.26,7.27-7.27v-2.72s0,0,0,0v-.85c0-1.03.83-1.86,1.86-1.86h11.37c1,0,1.8.79,1.85,1.77h0s0,.07,0,.07c0,0,0,.02,0,.03v.85s0,.02,0,.03v4.58s0,.04,0,.06c0,.14,0,.28,0,.42,0,4.66-1.78,8.94-4.75,12.31,2.97,3.37,4.75,7.65,4.75,12.31ZM235.56,705.09c0,8.81-6.34,16.26-15.09,18.79-2.07.6-4.27.92-6.55.92h-5.72c-2.28,0-4.48-.32-6.54-.92-3.35-.96-6.34-2.65-8.76-4.85-3.85-3.51-6.26-8.34-6.33-13.68,0-.08,0-.17,0-.26,0-.14,0-.27,0-.41v-30.14c0-1.03.84-1.87,1.87-1.87h11.36c1.03,0,1.87.84,1.87,1.87v28.38c.1,3.93,3.32,7.08,7.27,7.08h4.26c4.02,0,7.27-3.26,7.27-7.27v-16.43h0v-11.76c0-1.03.84-1.87,1.87-1.87h11.35c1.03,0,1.87.84,1.87,1.87v30.55ZM292.15,680.2v30.14c0,1.03-.84,1.87-1.87,1.87h-11.36c-1.03,0-1.87-.84-1.87-1.87v-28.38c-.1-3.93-3.32-7.08-7.27-7.08h-4.26c-4.02,0-7.27,3.26-7.27,7.27v16.43h0v11.76c0,1.03-.84,1.87-1.87,1.87h-11.35c-1.03,0-1.87-.84-1.87-1.87v-30.55c0-8.81,6.34-16.26,15.09-18.79,2.07-.6,4.27-.92,6.55-.92h5.72c2.28,0,4.48.32,6.54.92,3.35.96,6.34,2.65,8.76,4.85,3.85,3.51,6.26,8.34,6.33,13.68,0,.08,0,.17,0,.26,0,.14,0,.27,0,.41ZM349.96,705.09c0,8.81-6.34,16.26-15.09,18.79-2.07.6-4.27.92-6.55.92h-5.72c-2.28,0-4.48-.32-6.54-.92-3.35-.96-6.34-2.65-8.76-4.85-3.85-3.51-6.26-8.34-6.33-13.68,0-.08,0-.17,0-.26,0-.14,0-.27,0-.41v-30.14c0-1.03.84-1.87,1.87-1.87h11.36c1.03,0,1.87.84,1.87,1.87v28.38c.1,3.93,3.32,7.08,7.27,7.08h4.26c4.02,0,7.27-3.26,7.27-7.27v-16.43h0v-11.76c0-1.03.84-1.87,1.87-1.87h11.35c1.03,0,1.87.84,1.87,1.87v30.55ZM404.67,712.21h-11.36c-1.03,0-1.87-.84-1.87-1.87v-28.38c-.1-3.93-3.32-7.08-7.27-7.08h-4.26c-4.02,0-7.27,3.26-7.27,7.27v16.43h0v11.76c0,1.03-.84,1.87-1.87,1.87h-11.35c-1.03,0-1.87-.84-1.87-1.87v-30.55c0-8.81,6.34-16.26,15.09-18.79,2.07-.6,4.27-.92,6.55-.92h5.72c2.28,0,4.48.32,6.54.92,3.35.96,6.34,2.65,8.76,4.85,3.85,3.51,6.26,8.34,6.33,13.68,0,.08,0,.17,0,.26,0,.14,0,.27,0,.41v30.14c0,1.03-.84,1.87-1.87,1.87Z"/>
      <path class="cls-2" d="M233.69,672.67h-11.35c-1.03,0-1.87.84-1.87,1.87v11.76h0v16.43c0,4.01-3.25,7.27-7.27,7.27h-4.26c-3.95,0-7.17-3.16-7.27-7.08v-28.38c0-1.03-.84-1.87-1.87-1.87h-11.36c-1.03,0-1.87.84-1.87,1.87v30.14c0,.14,0,.27,0,.41,0,.08,0,.17,0,.26.07,5.34,2.48,10.17,6.33,13.68,2.42,2.21,5.41,3.89,8.76,4.85,2.06.6,4.26.92,6.54.92h5.72c2.28,0,4.49-.32,6.55-.92,8.75-2.53,15.09-9.98,15.09-18.79v-30.55c0-1.03-.84-1.87-1.87-1.87Z"/>
      <path class="cls-2" d="M348.09,672.67h-11.35c-1.03,0-1.87.84-1.87,1.87v11.76h0v16.43c0,4.01-3.25,7.27-7.27,7.27h-4.26c-3.95,0-7.17-3.16-7.27-7.08v-28.38c0-1.03-.84-1.87-1.87-1.87h-11.36c-1.03,0-1.87.84-1.87,1.87v30.14c0,.14,0,.27,0,.41,0,.08,0,.17,0,.26.07,5.34,2.48,10.17,6.33,13.68,2.42,2.21,5.41,3.89,8.76,4.85,2.06.6,4.26.92,6.54.92h5.72c2.28,0,4.49-.32,6.55-.92,8.75-2.53,15.09-9.98,15.09-18.79v-30.55c0-1.03-.84-1.87-1.87-1.87Z"/>
      <path class="cls-2" d="M421.69,719.02c2.42,2.21,5.41,3.89,8.76,4.85,2.06.6,4.26.92,6.54.92h5.72c2.28,0,4.49-.32,6.55-.92,8.75-2.53,15.09-9.98,15.09-18.79v-30.55c0-1.03-.84-1.87-1.87-1.87h-11.35c-1.03,0-1.87.84-1.87,1.87v11.76h0v16.43c0,4.01-3.25,7.27-7.27,7.27h-4.26c-3.95,0-7.17-3.16-7.27-7.08v-28.38c0-1.03-.84-1.87-1.87-1.87h-11.36c-1.03,0-1.87.84-1.87,1.87v30.14c0,.14,0,.27,0,.41,0,.08,0,.17,0,.26.07,5.34,2.48,10.17,6.33,13.68Z"/>
      <path class="cls-2" d="M285.81,665.85c-2.42-2.21-5.41-3.89-8.76-4.85-2.06-.6-4.26-.92-6.54-.92h-5.72c-2.28,0-4.49.32-6.55.92-8.75,2.53-15.09,9.98-15.09,18.79v30.55c0,1.03.84,1.87,1.87,1.87h11.35c1.03,0,1.87-.84,1.87-1.87v-11.76h0v-16.43c0-4.01,3.25-7.27,7.27-7.27h4.26c3.95,0,7.17,3.16,7.27,7.08v28.38c0,1.03.84,1.87,1.87,1.87h11.36c1.03,0,1.87-.84,1.87-1.87v-30.14c0-.14,0-.27,0-.41,0-.08,0-.17,0-.26-.07-5.34-2.48-10.17-6.33-13.68Z"/>
      <path class="cls-2" d="M406.54,680.2c0-.14,0-.27,0-.41,0-.08,0-.17,0-.26-.07-5.34-2.48-10.17-6.33-13.68-2.42-2.21-5.41-3.89-8.76-4.85-2.06-.6-4.26-.92-6.54-.92h-5.72c-2.28,0-4.49.32-6.55.92-8.75,2.53-15.09,9.98-15.09,18.79v30.55c0,1.03.84,1.87,1.87,1.87h11.35c1.03,0,1.87-.84,1.87-1.87v-11.76h0v-16.43c0-4.01,3.25-7.27,7.27-7.27h4.26c3.95,0,7.17,3.16,7.27,7.08v28.38c0,1.03.84,1.87,1.87,1.87h11.36c1.03,0,1.87-.84,1.87-1.87v-30.14Z"/>
      <path class="cls-2" d="M177.89,667.46s0-.04,0-.06v-4.58s0-.02,0-.03v-.85s0-.02,0-.03v-.07h0c-.05-.98-.86-1.77-1.85-1.77h-11.37c-1.03,0-1.86.83-1.86,1.86v.85s0,0,0,0v2.72c0,4.01-3.25,7.27-7.27,7.27h-4.99c-2.28,0-4.49.32-6.55.92v-32.25c0-1.03-.84-1.87-1.87-1.87h-11.35c-1.03,0-1.87.84-1.87,1.87v68.88c0,1.03.84,1.87,1.87,1.87h11.35c1.03,0,1.87-.84,1.87-1.87v-15.48h0c0-4.01,3.25-7.27,7.27-7.27h4.26c4.01,0,7.27,3.26,7.27,7.27v15.48c0,.32.08.62.23.88.31.59.93.99,1.65.99h11.35c1.03,0,1.87-.84,1.87-1.87v-17.84c0-4.66-1.78-8.94-4.75-12.31,2.97-3.37,4.75-7.65,4.75-12.31,0-.14,0-.28,0-.42Z"/>
      <path class="cls-10" d="M155.37,443.59l.06-.11,77.36-133.02c9.67-16.78,3.91-38.23-12.88-47.91-16.78-9.67-38.23-3.91-47.91,12.88l-.06.11-77.37,133.04c-14.3,24.72-36.54,41.99-61.62,50.47v127.61h147.53c-41.25-34.6-52.98-94.84-25.11-143.06Z"/>
      <path class="cls-8" d="M155.37,443.59l.06-.11,77.36-133.02c9.67-16.78,3.91-38.23-12.88-47.91-16.78-9.67-38.23-3.91-47.91,12.88l-.06.11-77.37,133.04c-14.3,24.72-36.54,41.99-61.62,50.47v127.61h147.53c-41.25-34.6-52.98-94.84-25.11-143.06Z"/>
      <path class="cls-10" d="M300.28,349.49l-.06.11-77.36,133.02c-9.67,16.78-3.91,38.23,12.87,47.91,16.78,9.67,38.23,3.91,47.91-12.87l.06-.11,77.37-133.04c31.23-54.05,100.36-72.55,154.41-41.32,20.1,11.61,35.28,28.47,44.81,47.84v-160.31h-263.51c22.78,34.6,25.63,80.47,3.5,118.78Z"/>
      <path class="cls-7" d="M300.28,349.49l-.06.11-77.36,133.02c-9.67,16.78-3.91,38.23,12.87,47.91,16.78,9.67,38.23,3.91,47.91-12.87l.06-.11,77.37-133.04c31.23-54.05,100.36-72.55,154.41-41.32,20.1,11.61,35.28,28.47,44.81,47.84v-160.31h-263.51c22.78,34.6,25.63,80.47,3.5,118.78Z"/>
      <path class="cls-10" d="M108.07,230.71H32.96v128.78l71.59-123.09c1.12-1.95,2.3-3.84,3.52-5.69Z"/>
      <path class="cls-4" d="M108.07,230.71H32.96v128.78l71.59-123.09c1.12-1.95,2.3-3.84,3.52-5.69Z"/>
      <path class="cls-10" d="M476.44,410.67c-16.78-9.67-38.23-3.91-47.91,12.87l-.06.11-77.37,133.04c-6.77,11.71-15.31,21.75-25.1,29.98h88.82l74.49-128.08c9.67-16.78,3.91-38.23-12.87-47.91Z"/>
      <path class="cls-3" d="M476.44,410.67c-16.78-9.67-38.23-3.91-47.91,12.87l-.06.11-77.37,133.04c-6.77,11.71-15.31,21.75-25.1,29.98h88.82l74.49-128.08c9.67-16.78,3.91-38.23-12.87-47.91Z"/>
      <path class="cls-10" d="M556.74,497.7l-51.74,88.96h55.29v-95.61c-1.09,2.2-2.25,4.39-3.49,6.54l-.06.11Z"/>
      <path class="cls-6" d="M556.74,497.7l-51.74,88.96h55.29v-95.61c-1.09,2.2-2.25,4.39-3.49,6.54l-.06.11Z"/>
      <path class="cls-10" d="M94.58,408.58l77.37-133.04.06-.11c9.67-16.78,31.12-22.55,47.91-12.88,16.78,9.67,22.55,31.12,12.88,47.91l-77.36,133.02-.06.11c-27.87,48.23-16.13,108.46,25.11,143.06h145.52c9.78-8.23,18.33-18.27,25.1-29.98l77.37-133.04.06-.11c9.67-16.78,31.12-22.55,47.91-12.87,16.78,9.67,22.55,31.12,12.87,47.91l-74.49,128.08h90.17l51.74-88.96.06-.11c1.25-2.16,2.41-4.34,3.49-6.54v-100.03c-9.54-19.37-24.72-36.23-44.81-47.84-54.05-31.23-123.18-12.73-154.41,41.32l-77.37,133.04-.06.11c-9.67,16.78-31.12,22.55-47.91,12.87-16.78-9.67-22.55-31.12-12.87-47.91l77.36-133.02.06-.11c22.13-38.31,19.28-84.18-3.5-118.78H108.07c-1.22,1.85-2.4,3.75-3.52,5.69l-71.59,123.09v99.56c25.09-8.47,47.32-25.74,61.62-50.47Z"/>
      <path class="cls-1" d="M94.58,408.58l77.37-133.04.06-.11c9.67-16.78,31.12-22.55,47.91-12.88,16.78,9.67,22.55,31.12,12.88,47.91l-77.36,133.02-.06.11c-27.87,48.23-16.13,108.46,25.11,143.06h145.52c9.78-8.23,18.33-18.27,25.1-29.98l77.37-133.04.06-.11c9.67-16.78,31.12-22.55,47.91-12.87,16.78,9.67,22.55,31.12,12.87,47.91l-74.49,128.08h90.17l51.74-88.96.06-.11c1.25-2.16,2.41-4.34,3.49-6.54v-100.03c-9.54-19.37-24.72-36.23-44.81-47.84-54.05-31.23-123.18-12.73-154.41,41.32l-77.37,133.04-.06.11c-9.67,16.78-31.12,22.55-47.91,12.87-16.78-9.67-22.55-31.12-12.87-47.91l77.36-133.02.06-.11c22.13-38.31,19.28-84.18-3.5-118.78H108.07c-1.22,1.85-2.4,3.75-3.52,5.69l-71.59,123.09v99.56c25.09-8.47,47.32-25.74,61.62-50.47Z"/>
      <path class="cls-5" d="M94.58,408.58l77.37-133.04.06-.11c9.67-16.78,31.12-22.55,47.91-12.88,16.78,9.67,22.55,31.12,12.88,47.91l-77.36,133.02-.06.11c-27.87,48.23-16.13,108.46,25.11,143.06h145.52c9.78-8.23,18.33-18.27,25.1-29.98l77.37-133.04.06-.11c9.67-16.78,31.12-22.55,47.91-12.87,16.78,9.67,22.55,31.12,12.87,47.91l-74.49,128.08h90.17l51.74-88.96.06-.11c1.25-2.16,2.41-4.34,3.49-6.54v-100.03c-9.54-19.37-24.72-36.23-44.81-47.84-54.05-31.23-123.18-12.73-154.41,41.32l-77.37,133.04-.06.11c-9.67,16.78-31.12,22.55-47.91,12.87-16.78-9.67-22.55-31.12-12.87-47.91l77.36-133.02.06-.11c22.13-38.31,19.28-84.18-3.5-118.78H108.07c-1.22,1.85-2.4,3.75-3.52,5.69l-71.59,123.09v99.56c25.09-8.47,47.32-25.74,61.62-50.47Z"/>
      <path class="cls-9" d="M405.88,52.73c-5.03,0-8.88,1.37-11.56,4.09-2.68,2.73-4.02,6.9-4.02,12.5v1.45c0,5.36,1.34,9.37,4.02,12.03,2.68,2.66,6.53,3.99,11.56,3.99s8.83-1.24,11.56-3.73c2.73-2.49,4.09-6.56,4.09-12.21v-1.45c0-5.8-1.35-10.03-4.06-12.68-2.71-2.66-6.57-3.99-11.6-3.99Z"/>
      <path class="cls-9" d="M560.29,32.96H250.48v72.51h309.81V32.96ZM372.4,85.42v10.15h-49.29v-7.76c0-3.04.59-5.6,1.78-7.68,1.18-2.08,2.81-3.82,4.89-5.22,2.08-1.35,4.46-2.49,7.14-3.41,2.68-.92,5.54-1.74,8.59-2.46,1.64-.43,3.16-.84,4.57-1.23,1.4-.39,2.71-.8,3.91-1.23,2.42-.82,4.28-1.78,5.58-2.86,1.3-1.09,1.96-2.48,1.96-4.17,0-2.42-.94-4.24-2.83-5.47-1.88-1.23-4.9-1.85-9.06-1.85-4.83,0-8.46.91-10.87,2.72-2.42,1.81-3.62,4.53-3.62,8.15v.65h-11.38v-.8c0-6.38,2.17-11.34,6.52-14.89,4.35-3.55,10.85-5.33,19.5-5.33,2.75,0,5.23.18,7.43.54,2.2.36,4.14.91,5.83,1.63,3.43,1.4,5.93,3.36,7.5,5.87,1.57,2.51,2.36,5.36,2.36,8.55,0,1.69-.22,3.23-.65,4.6s-1.09,2.62-1.96,3.73c-1.74,2.13-4.22,3.89-7.43,5.29-3.21,1.4-7.04,2.68-11.49,3.84-5.12,1.35-8.99,2.59-11.6,3.7-2.61,1.11-4.01,2.75-4.2,4.93h36.82ZM433.14,71.07c0,2.85-.29,5.48-.87,7.9-.58,2.42-1.45,4.57-2.61,6.45-2.27,3.82-5.46,6.68-9.57,8.59-4.11,1.91-8.84,2.86-14.21,2.86-2.75,0-5.34-.23-7.76-.69-2.42-.46-4.64-1.15-6.67-2.07-4.06-1.88-7.19-4.73-9.39-8.55-2.2-3.82-3.3-8.67-3.3-14.57v-1.96c0-2.8.29-5.4.87-7.79.58-2.39,1.42-4.55,2.54-6.49,2.27-3.91,5.45-6.9,9.53-8.95,4.08-2.05,8.81-3.08,14.17-3.08,2.66,0,5.16.25,7.5.76,2.34.51,4.53,1.27,6.56,2.28,4.11,1.98,7.33,4.93,9.68,8.84,2.34,3.91,3.52,8.7,3.52,14.35v2.1ZM487.64,85.42v10.15h-49.29v-7.76c0-3.04.59-5.6,1.78-7.68,1.18-2.08,2.81-3.82,4.89-5.22,2.08-1.35,4.46-2.49,7.14-3.41,2.68-.92,5.55-1.74,8.59-2.46,1.64-.43,3.16-.84,4.57-1.23,1.4-.39,2.71-.8,3.91-1.23,2.42-.82,4.28-1.78,5.58-2.86,1.3-1.09,1.96-2.48,1.96-4.17,0-2.42-.94-4.24-2.83-5.47-1.88-1.23-4.9-1.85-9.06-1.85-4.83,0-8.46.91-10.87,2.72-2.42,1.81-3.62,4.53-3.62,8.15v.65h-11.38v-.8c0-6.38,2.17-11.34,6.52-14.89,4.35-3.55,10.85-5.33,19.5-5.33,2.75,0,5.23.18,7.43.54,2.2.36,4.14.91,5.83,1.63,3.43,1.4,5.93,3.36,7.5,5.87,1.57,2.51,2.36,5.36,2.36,8.55,0,1.69-.22,3.23-.65,4.6-.44,1.38-1.09,2.62-1.96,3.73-1.74,2.13-4.22,3.89-7.43,5.29-3.21,1.4-7.04,2.68-11.49,3.84-5.12,1.35-8.99,2.59-11.6,3.7-2.61,1.11-4.01,2.75-4.2,4.93h36.82ZM536.67,92.05c-4.52,3.17-10.76,4.75-18.74,4.75-8.41,0-14.58-1.53-18.52-4.6-3.94-3.07-6.08-7.38-6.41-12.94v-.07h12.1v.15c.29,2.42,1.55,4.31,3.77,5.69,2.22,1.38,5.48,2.07,9.78,2.07s7.68-.74,10-2.21c2.32-1.47,3.48-3.73,3.48-6.78s-1.09-5.33-3.26-6.7c-2.17-1.38-5.05-2.07-8.62-2.07s-6.52.48-8.99,1.45c-2.46.97-4.49,2.15-6.09,3.55l-1.16.8-10.29-3.19,4.2-28.05h43.05v.29c0,1.4-.08,2.62-.25,3.66-.17,1.04-.4,1.9-.69,2.57-.68,1.3-1.92,2.16-3.73,2.57-1.81.41-4.51.62-8.08.62h-21.89c-.29,1.93-.6,4.08-.94,6.45-.34,2.37-.65,4.49-.94,6.38,1.84-1.74,4.25-3.19,7.25-4.35,3-1.16,6.55-1.74,10.65-1.74,6.62,0,11.79,1.49,15.51,4.46,3.72,2.97,5.58,7.48,5.58,13.52s-2.26,10.57-6.78,13.73Z"/>
      <path class="cls-2" d="M537.87,64.8c-3.72-2.97-8.89-4.46-15.51-4.46-4.11,0-7.66.58-10.65,1.74-3,1.16-5.41,2.61-7.25,4.35.29-1.88.6-4.01.94-6.38.34-2.37.65-4.52.94-6.45h21.89c3.58,0,6.27-.2,8.08-.62,1.81-.41,3.06-1.27,3.73-2.57.29-.68.52-1.53.69-2.57.17-1.04.25-2.26.25-3.66v-.29h-43.05l-4.2,28.05,10.29,3.19,1.16-.8c1.59-1.4,3.62-2.58,6.09-3.55,2.46-.97,5.46-1.45,8.99-1.45s6.45.69,8.62,2.07c2.17,1.38,3.26,3.61,3.26,6.7s-1.16,5.3-3.48,6.78c-2.32,1.47-5.65,2.21-10,2.21s-7.56-.69-9.78-2.07c-2.22-1.38-3.48-3.27-3.77-5.69v-.15h-12.1v.07c.34,5.56,2.48,9.87,6.41,12.94,3.94,3.07,10.11,4.6,18.52,4.6,7.97,0,14.22-1.58,18.74-4.75,4.52-3.16,6.78-7.74,6.78-13.73s-1.86-10.55-5.58-13.52Z"/>
      <path class="cls-2" d="M339.78,80.49c2.61-1.11,6.47-2.34,11.6-3.7,4.44-1.16,8.27-2.44,11.49-3.84,3.21-1.4,5.69-3.16,7.43-5.29.87-1.11,1.52-2.36,1.96-3.73s.65-2.91.65-4.6c0-3.19-.79-6.04-2.36-8.55-1.57-2.51-4.07-4.47-7.5-5.87-1.69-.72-3.64-1.27-5.83-1.63-2.2-.36-4.67-.54-7.43-.54-8.65,0-15.15,1.78-19.5,5.33-4.35,3.55-6.52,8.52-6.52,14.89v.8h11.38v-.65c0-3.62,1.21-6.34,3.62-8.15,2.42-1.81,6.04-2.72,10.87-2.72,4.16,0,7.18.62,9.06,1.85,1.88,1.23,2.83,3.06,2.83,5.47,0,1.69-.65,3.08-1.96,4.17-1.3,1.09-3.17,2.04-5.58,2.86-1.21.43-2.51.85-3.91,1.23-1.4.39-2.92.8-4.57,1.23-3.04.72-5.91,1.55-8.59,2.46-2.68.92-5.06,2.05-7.14,3.41-2.08,1.4-3.71,3.14-4.89,5.22-1.18,2.08-1.78,4.64-1.78,7.68v7.76h49.29v-10.15h-36.82c.19-2.17,1.59-3.82,4.2-4.93Z"/>
      <path class="cls-2" d="M419.95,45.78c-2.03-1.01-4.22-1.78-6.56-2.28-2.34-.51-4.84-.76-7.5-.76-5.36,0-10.09,1.03-14.17,3.08-4.08,2.05-7.26,5.04-9.53,8.95-1.11,1.93-1.96,4.09-2.54,6.49-.58,2.39-.87,4.99-.87,7.79v1.96c0,5.9,1.1,10.75,3.3,14.57,2.2,3.82,5.33,6.67,9.39,8.55,2.03.92,4.25,1.61,6.67,2.07,2.42.46,5,.69,7.76.69,5.36,0,10.1-.95,14.21-2.86,4.11-1.91,7.3-4.77,9.57-8.59,1.16-1.88,2.03-4.03,2.61-6.45.58-2.42.87-5.05.87-7.9v-2.1c0-5.65-1.17-10.44-3.52-14.35-2.34-3.91-5.57-6.86-9.68-8.84ZM421.54,70.85c0,5.65-1.37,9.72-4.09,12.21-2.73,2.49-6.58,3.73-11.56,3.73s-8.88-1.33-11.56-3.99c-2.68-2.66-4.02-6.67-4.02-12.03v-1.45c0-5.6,1.34-9.77,4.02-12.5,2.68-2.73,6.53-4.09,11.56-4.09s8.89,1.33,11.6,3.99c2.71,2.66,4.06,6.89,4.06,12.68v1.45Z"/>
      <path class="cls-2" d="M455.02,80.49c2.61-1.11,6.47-2.34,11.6-3.7,4.44-1.16,8.27-2.44,11.49-3.84,3.21-1.4,5.69-3.16,7.43-5.29.87-1.11,1.52-2.36,1.96-3.73.43-1.38.65-2.91.65-4.6,0-3.19-.79-6.04-2.36-8.55-1.57-2.51-4.07-4.47-7.5-5.87-1.69-.72-3.64-1.27-5.83-1.63-2.2-.36-4.67-.54-7.43-.54-8.65,0-15.15,1.78-19.5,5.33-4.35,3.55-6.52,8.52-6.52,14.89v.8h11.38v-.65c0-3.62,1.21-6.34,3.62-8.15,2.42-1.81,6.04-2.72,10.87-2.72,4.16,0,7.18.62,9.06,1.85,1.88,1.23,2.83,3.06,2.83,5.47,0,1.69-.65,3.08-1.96,4.17-1.3,1.09-3.16,2.04-5.58,2.86-1.21.43-2.51.85-3.91,1.23-1.4.39-2.92.8-4.57,1.23-3.04.72-5.91,1.55-8.59,2.46-2.68.92-5.06,2.05-7.14,3.41-2.08,1.4-3.71,3.14-4.89,5.22-1.18,2.08-1.78,4.64-1.78,7.68v7.76h49.29v-10.15h-36.82c.19-2.17,1.59-3.82,4.2-4.93Z"/>
      <polygon points="56.45 96.21 76.75 96.21 76.75 49.98 96.87 49.98 96.87 32.96 36.89 32.96 36.89 49.98 56.45 49.98 56.45 96.21"/>
      <path d="M94.2,70.72v.71c0,8.35,2.58,14.82,7.75,19.41,5.17,4.59,13.32,6.88,24.45,6.88,10.46,0,18.45-2.32,23.99-6.97,5.6-4.65,8.4-11.09,8.4-19.32v-.71c0-5.65-1.29-10.47-3.87-14.47-2.58-4.06-6.3-7.15-11.16-9.26-2.4-1.12-5.04-1.94-7.94-2.47-2.83-.53-5.9-.79-9.23-.79-6.52,0-12.21,1.09-17.07,3.26-4.86,2.12-8.64,5.21-11.35,9.26-1.29,2-2.28,4.21-2.95,6.62-.68,2.41-1.02,5.03-1.02,7.85ZM114.41,70.72c0-3.88,1.05-6.79,3.14-8.73,2.15-2,5.17-3,9.04-3s7.07.97,9.04,2.91c2.03,1.94,3.04,4.88,3.04,8.82v.62c0,3.65-1.01,6.38-3.04,8.2-2.03,1.82-5.07,2.73-9.13,2.73s-6.95-.91-9.04-2.73c-2.03-1.88-3.04-4.62-3.04-8.2v-.62Z"/>
      <path d="M185.81,88.36c1.6,2.76,3.88,4.94,6.83,6.53,3.01,1.59,6.95,2.38,11.81,2.38s8.83-.97,12.64-2.91c3.88-1.94,6.95-4.82,9.23-8.65,1.11-1.94,1.94-4.09,2.49-6.44.61-2.41.92-5.03.92-7.85v-.62c0-8.82-2.31-15.5-6.92-20.03-4.55-4.59-10.61-6.88-18.18-6.88-4.86,0-8.98.91-12.36,2.73-3.32,1.82-5.87,4.35-7.66,7.59l-1.57-9.17h-16.79v68.81h19.56v-25.5ZM185.53,70.8c0-3.82,1.08-6.73,3.23-8.73,2.15-2.06,5.11-3.09,8.86-3.09s6.86,1,8.95,3c2.09,1.94,3.14,4.91,3.14,8.91v.44c0,3.65-1.01,6.38-3.04,8.2-2.03,1.82-5.07,2.73-9.13,2.73s-7.01-.91-9.04-2.73c-1.97-1.88-2.95-4.65-2.95-8.29v-.44Z"/>
      <path d="M42.27,183.11c6.21,5.2,14.9,7.81,26.08,7.81s19.81-2.45,26.08-7.35c6.27-4.9,9.78-12.24,10.52-22.04v-.64h-21.98v.46c-.37,3.67-1.68,6.55-3.91,8.63-2.17,2.02-5.56,3.03-10.15,3.03-4.84,0-8.54-1.26-11.08-3.77-2.55-2.51-3.82-6.34-3.82-11.48v-2.39c0-5.33,1.3-9.28,3.91-11.85,2.61-2.63,6.36-3.95,11.27-3.95,4.28,0,7.54.98,9.78,2.94,2.24,1.9,3.54,4.56,3.91,7.99v.46h21.89v-.83c-.56-6.37-2.39-11.63-5.5-15.8-3.04-4.16-7.14-7.29-12.29-9.37-2.55-.98-5.31-1.71-8.29-2.2-2.98-.55-6.15-.83-9.5-.83-7.2,0-13.54,1.29-19,3.86-5.46,2.51-9.69,6.24-12.67,11.2-1.55,2.45-2.7,5.17-3.45,8.17-.75,3-1.12,6.28-1.12,9.83v3.49c0,11.2,3.1,19.41,9.31,24.61Z"/>
      <path d="M143.05,134.62c-6.58,0-12.33,1.13-17.23,3.4-4.91,2.2-8.72,5.42-11.46,9.64-1.3,2.08-2.3,4.38-2.98,6.89-.68,2.51-1.02,5.23-1.02,8.17v.73c0,8.69,2.61,15.43,7.82,20.2,5.22,4.78,13.44,7.16,24.68,7.16,10.56,0,18.63-2.42,24.22-7.25,5.65-4.84,8.48-11.54,8.48-20.11v-.73c0-5.88-1.3-10.9-3.91-15.06-2.61-4.22-6.36-7.44-11.27-9.64-2.42-1.16-5.09-2.02-8.01-2.57-2.86-.55-5.96-.83-9.31-.83ZM155.25,163.36c0,3.8-1.02,6.64-3.07,8.54-2.05,1.9-5.12,2.85-9.22,2.85s-7.02-.95-9.13-2.85c-2.05-1.96-3.07-4.81-3.07-8.54v-.64c0-4.04,1.06-7.07,3.17-9.09,2.17-2.08,5.22-3.12,9.13-3.12s7.14,1.01,9.13,3.03c2.05,2.02,3.07,5.08,3.07,9.18v.64Z"/>
      <path d="M208.97,137.83c-3.1,2.08-5.43,4.84-6.99,8.27l-1.77-10.1h-17.14v53.26h20.21v-24.43c0-4.1.68-7.38,2.05-9.83,1.37-2.45,3.79-3.67,7.26-3.67,2.42,0,4.25.52,5.5,1.56,1.24,1.04,2.08,2.45,2.51,4.22.25.92.4,1.9.47,2.94.12,1.04.19,2.14.19,3.31v25.9h20.02v-24.98c0-3.86.62-6.98,1.86-9.37,1.3-2.39,3.63-3.58,6.99-3.58,3.66,0,6.05,1.13,7.17,3.4,1.18,2.26,1.77,5.26,1.77,9v25.53h20.12v-31.5c0-7.16-1.71-12.8-5.12-16.9-3.35-4.1-8.54-6.15-15.55-6.15-4.72,0-8.69,1.07-11.92,3.21-3.23,2.08-5.62,4.9-7.17,8.45-1.37-3.73-3.57-6.61-6.61-8.63-3.04-2.08-7.05-3.12-12.01-3.12s-8.66,1.07-11.83,3.21Z"/>
      <path d="M314.31,137.65c-3.35,1.9-5.93,4.53-7.73,7.9l-1.58-9.55h-16.95v71.63h19.75v-26.54c1.61,2.88,3.91,5.14,6.89,6.8,3.04,1.65,7.02,2.48,11.92,2.48s8.91-1.01,12.76-3.03c3.91-2.02,7.02-5.02,9.31-9,1.12-2.02,1.96-4.25,2.51-6.7.62-2.51.93-5.24.93-8.17v-.64c0-9.18-2.33-16.13-6.99-20.85-4.59-4.78-10.71-7.16-18.35-7.16-4.91,0-9.07.95-12.48,2.85ZM331.91,162.9v.46c0,3.8-1.02,6.64-3.07,8.54-2.05,1.9-5.12,2.85-9.22,2.85s-7.08-.95-9.13-2.85c-1.99-1.96-2.98-4.84-2.98-8.63v-.46c0-3.98,1.09-7.01,3.26-9.09,2.17-2.14,5.15-3.21,8.94-3.21s6.92,1.04,9.03,3.12c2.11,2.02,3.17,5.11,3.17,9.28Z"/>
      <path d="M399.02,155.65c-.81.55-2.2,1.01-4.19,1.38-1.06.18-2.3.37-3.73.55-1.37.18-2.98.37-4.84.55-3.91.37-7.14.73-9.69,1.1-2.55.37-4.72.83-6.52,1.38-.93.31-1.83.64-2.7,1.01-.81.31-1.61.67-2.42,1.1-2.61,1.35-4.59,3.15-5.96,5.42-1.3,2.2-1.96,4.87-1.96,7.99v.09c0,4.65,1.65,8.27,4.94,10.84,3.29,2.51,8.29,3.77,15,3.77,6.27,0,11.36-1.1,15.27-3.31,3.91-2.2,6.8-5.02,8.66-8.45l2.05,10.19h16.95v-32.51c0-7.59-2.36-13.16-7.08-16.71-4.66-3.55-12.14-5.33-22.45-5.33-9.75,0-17.32,1.78-22.73,5.33-5.34,3.49-8.35,8.6-9.03,15.34h20.68c.12-2.2,1.06-3.89,2.79-5.05,1.8-1.22,4.78-1.84,8.94-1.84,3.6,0,6.02.46,7.26,1.38,1.3.92,1.96,2.08,1.96,3.49,0,.98-.4,1.74-1.21,2.3ZM400.32,164.74v1.56c0,1.96-.68,3.83-2.05,5.6-1.37,1.71-3.23,3.12-5.59,4.22-1.12.55-2.33.98-3.63,1.29-1.3.24-2.67.37-4.1.37-2.24,0-3.91-.34-5.03-1.01-1.12-.73-1.68-1.78-1.68-3.12,0-.8.19-1.5.56-2.11.43-.67,1.02-1.22,1.77-1.65.87-.49,2.05-.89,3.54-1.19,1.49-.37,3.73-.73,6.71-1.1,2.36-.31,4.32-.67,5.87-1.1,1.61-.49,2.83-1.07,3.63-1.74Z"/>
      <path d="M489.93,189.26v-31.87c0-7.1-1.86-12.67-5.59-16.71s-9.13-6.06-16.21-6.06c-5.09,0-9.28,1.13-12.57,3.4-3.23,2.2-5.65,5.11-7.26,8.72l-1.86-10.74h-17.32v53.26h20.4v-24.89c0-4.35.81-7.59,2.42-9.73,1.61-2.2,4.31-3.31,8.1-3.31s6.18,1.01,7.54,3.03c1.37,2.02,2.05,4.93,2.05,8.72v26.17h20.3Z"/>
      <path d="M512.42,192.11c-.87.98-1.96,1.65-3.26,2.02-.68.24-1.49.4-2.42.46-.87.12-1.86.18-2.98.18h-8.1v16.16h10.25c3.97,0,7.3-.25,9.97-.73,2.67-.49,4.97-1.41,6.89-2.75,1.93-1.35,3.76-3.34,5.5-5.97,1.74-2.63,3.63-6.09,5.68-10.38l26.36-55.1h-20.77l-13.13,29.85-.28.92-.28-1.01-13.23-29.75h-21.51l24.59,50.6-.65,1.47c-.81,1.71-1.68,3.06-2.61,4.04Z"/>
    </g>
  </g>
</svg>